{
	"asset":{
		"generator":"Khronos glTF Blender I/O v4.3.47",
		"version":"2.0"
	},
	"extensionsUsed":[
		"KHR_materials_emissive_strength",
		"KHR_texture_transform"
	],
	"extensionsRequired":[
		"KHR_texture_transform"
	],
	"scene":0,
	"scenes":[
		{
			"name":"Scene",
			"nodes":[
				0
			]
		}
	],
	"nodes":[
		{
			"mesh":0,
			"name":"Female_Head",
			"rotation":[
				0.70710688829422,
				0,
				0,
				0.7071066498756409
			]
		}
	],
	"materials":[
		{
			"doubleSided":true,
			"emissiveFactor":[
				1,
				1,
				1
			],
			"emissiveTexture":{
				"index":0
			},
			"extensions":{
				"KHR_materials_emissive_strength":{
					"emissiveStrength":5
				}
			},
			"name":"Holografic.001",
			"pbrMetallicRoughness":{
				"baseColorTexture":{
					"index":1
				},
				"metallicFactor":0,
				"roughnessFactor":0.5
			}
		},
		{
			"doubleSided":true,
			"emissiveFactor":[
				0.11565078049898148,
				0.5819687843322754,
				1
			],
			"extensions":{
				"KHR_materials_emissive_strength":{
					"emissiveStrength":1.2000007629394531
				}
			},
			"name":"Eye.001",
			"pbrMetallicRoughness":{
				"baseColorTexture":{
					"extensions":{
						"KHR_texture_transform":{
							"offset":[
								-0.9200000166893005,
								-0.8300000429153442
							],
							"scale":[
								5.690000057220459,
								2.700000047683716
							]
						}
					},
					"index":2
				},
				"metallicFactor":0,
				"roughnessFactor":0
			}
		},
		{
			"doubleSided":true,
			"emissiveFactor":[
				1,
				1,
				1
			],
			"emissiveTexture":{
				"index":3
			},
			"extensions":{
				"KHR_materials_emissive_strength":{
					"emissiveStrength":7
				}
			},
			"name":"Holografic_Mouth.001",
			"pbrMetallicRoughness":{
				"baseColorTexture":{
					"index":4
				},
				"metallicFactor":0,
				"roughnessFactor":0.5
			}
		}
	],
	"meshes":[
		{
			"extras":{
				"targetNames":[
					"visema_sil",
					"visema_a",
					"visema_p",
					"blink"
				]
			},
			"name":"FemaleHead.001",
			"primitives":[
				{
					"attributes":{
						"POSITION":0,
						"NORMAL":1,
						"TEXCOORD_0":2
					},
					"indices":3,
					"material":0,
					"targets":[
						{
							"POSITION":4,
							"NORMAL":5
						},
						{
							"POSITION":6,
							"NORMAL":7
						},
						{
							"POSITION":8,
							"NORMAL":9
						},
						{
							"POSITION":10,
							"NORMAL":11
						}
					]
				},
				{
					"attributes":{
						"POSITION":12,
						"NORMAL":13,
						"TEXCOORD_0":14
					},
					"indices":15,
					"material":1,
					"targets":[
						{
							"POSITION":16,
							"NORMAL":17
						},
						{
							"POSITION":18,
							"NORMAL":19
						},
						{
							"POSITION":20,
							"NORMAL":21
						},
						{
							"POSITION":22,
							"NORMAL":23
						}
					]
				},
				{
					"attributes":{
						"POSITION":24,
						"NORMAL":25,
						"TEXCOORD_0":26
					},
					"indices":27,
					"material":2,
					"targets":[
						{
							"POSITION":28,
							"NORMAL":29
						},
						{
							"POSITION":30,
							"NORMAL":31
						},
						{
							"POSITION":32,
							"NORMAL":33
						},
						{
							"POSITION":34,
							"NORMAL":35
						}
					]
				}
			],
			"weights":[
				1,
				0,
				0,
				0
			]
		}
	],
	"textures":[
		{
			"sampler":0,
			"source":0
		},
		{
			"sampler":0,
			"source":0
		},
		{
			"sampler":1,
			"source":1
		},
		{
			"sampler":0,
			"source":2
		},
		{
			"sampler":0,
			"source":2
		}
	],
	"images":[
		{
			"mimeType":"image/png",
			"name":"tumama",
			"uri":"Textures/tumama.png"
		},
		{
			"mimeType":"image/png",
			"name":"eye",
			"uri":"Textures/eye.png"
		},
		{
			"mimeType":"image/png",
			"name":"mouth",
			"uri":"Textures/mouth.png"
		}
	],
	"accessors":[
		{
			"bufferView":0,
			"componentType":5126,
			"count":16153,
			"max":[
				0.6335999965667725,
				0.7394000291824341,
				1.011056661605835
			],
			"min":[
				-0.6335999965667725,
				-0.7394000291824341,
				-1
			],
			"type":"VEC3"
		},
		{
			"bufferView":1,
			"componentType":5126,
			"count":16153,
			"type":"VEC3"
		},
		{
			"bufferView":2,
			"componentType":5126,
			"count":16153,
			"type":"VEC2"
		},
		{
			"bufferView":3,
			"componentType":5123,
			"count":74796,
			"type":"SCALAR"
		},
		{
			"componentType":5126,
			"count":16153,
			"max":[
				0,
				0,
				0
			],
			"min":[
				0,
				0,
				0
			],
			"sparse":{
				"count":1,
				"indices":{
					"bufferView":4,
					"componentType":5121
				},
				"values":{
					"bufferView":5
				}
			},
			"type":"VEC3"
		},
		{
			"bufferView":6,
			"componentType":5126,
			"count":16153,
			"type":"VEC3"
		},
		{
			"componentType":5126,
			"count":16153,
			"max":[
				2.9802322387695312e-08,
				1.1920928955078125e-07,
				0.043255627155303955
			],
			"min":[
				-5.960464477539063e-08,
				-2.384185791015625e-07,
				-0.025867938995361328
			],
			"sparse":{
				"count":2264,
				"indices":{
					"bufferView":7,
					"componentType":5123
				},
				"values":{
					"bufferView":8
				}
			},
			"type":"VEC3"
		},
		{
			"bufferView":9,
			"componentType":5126,
			"count":16153,
			"type":"VEC3"
		},
		{
			"componentType":5126,
			"count":16153,
			"max":[
				0,
				0,
				0.025691762566566467
			],
			"min":[
				-9.313225746154785e-10,
				0,
				-0.02510896325111389
			],
			"sparse":{
				"count":925,
				"indices":{
					"bufferView":10,
					"componentType":5123
				},
				"values":{
					"bufferView":11
				}
			},
			"type":"VEC3"
		},
		{
			"bufferView":12,
			"componentType":5126,
			"count":16153,
			"type":"VEC3"
		},
		{
			"componentType":5126,
			"count":16153,
			"max":[
				2.9802322387695312e-08,
				0.000805974006652832,
				0.0552457720041275
			],
			"min":[
				-0.0008086115121841431,
				-2.384185791015625e-07,
				-0.019672617316246033
			],
			"sparse":{
				"count":2665,
				"indices":{
					"bufferView":13,
					"componentType":5123
				},
				"values":{
					"bufferView":14
				}
			},
			"type":"VEC3"
		},
		{
			"bufferView":15,
			"componentType":5126,
			"count":16153,
			"type":"VEC3"
		},
		{
			"bufferView":16,
			"componentType":5126,
			"count":1176,
			"max":[
				0.3140784502029419,
				0.4577735960483551,
				-0.08907174319028854
			],
			"min":[
				-0.3125116229057312,
				0.31049713492393494,
				-0.2363482415676117
			],
			"type":"VEC3"
		},
		{
			"bufferView":17,
			"componentType":5126,
			"count":1176,
			"type":"VEC3"
		},
		{
			"bufferView":18,
			"componentType":5126,
			"count":1176,
			"type":"VEC2"
		},
		{
			"bufferView":19,
			"componentType":5123,
			"count":5760,
			"type":"SCALAR"
		},
		{
			"componentType":5126,
			"count":1176,
			"max":[
				0,
				0,
				0
			],
			"min":[
				0,
				0,
				0
			],
			"sparse":{
				"count":1,
				"indices":{
					"bufferView":20,
					"componentType":5121
				},
				"values":{
					"bufferView":21
				}
			},
			"type":"VEC3"
		},
		{
			"bufferView":22,
			"componentType":5126,
			"count":1176,
			"type":"VEC3"
		},
		{
			"componentType":5126,
			"count":1176,
			"max":[
				0,
				0,
				0
			],
			"min":[
				0,
				0,
				0
			],
			"sparse":{
				"count":1,
				"indices":{
					"bufferView":23,
					"componentType":5121
				},
				"values":{
					"bufferView":24
				}
			},
			"type":"VEC3"
		},
		{
			"bufferView":25,
			"componentType":5126,
			"count":1176,
			"type":"VEC3"
		},
		{
			"componentType":5126,
			"count":1176,
			"max":[
				0,
				0,
				0
			],
			"min":[
				0,
				0,
				0
			],
			"sparse":{
				"count":1,
				"indices":{
					"bufferView":26,
					"componentType":5121
				},
				"values":{
					"bufferView":27
				}
			},
			"type":"VEC3"
		},
		{
			"bufferView":28,
			"componentType":5126,
			"count":1176,
			"type":"VEC3"
		},
		{
			"componentType":5126,
			"count":1176,
			"max":[
				0,
				0,
				0
			],
			"min":[
				0,
				0,
				0
			],
			"sparse":{
				"count":1,
				"indices":{
					"bufferView":29,
					"componentType":5121
				},
				"values":{
					"bufferView":30
				}
			},
			"type":"VEC3"
		},
		{
			"bufferView":31,
			"componentType":5126,
			"count":1176,
			"type":"VEC3"
		},
		{
			"bufferView":32,
			"componentType":5126,
			"count":703,
			"max":[
				0.18919998407363892,
				0.6383000016212463,
				0.3752000033855438
			],
			"min":[
				-0.21070000529289246,
				0.40869998931884766,
				0.24699999392032623
			],
			"type":"VEC3"
		},
		{
			"bufferView":33,
			"componentType":5126,
			"count":703,
			"type":"VEC3"
		},
		{
			"bufferView":34,
			"componentType":5126,
			"count":703,
			"type":"VEC2"
		},
		{
			"bufferView":35,
			"componentType":5123,
			"count":3012,
			"type":"SCALAR"
		},
		{
			"componentType":5126,
			"count":703,
			"max":[
				0,
				0,
				0
			],
			"min":[
				0,
				0,
				0
			],
			"sparse":{
				"count":1,
				"indices":{
					"bufferView":36,
					"componentType":5121
				},
				"values":{
					"bufferView":37
				}
			},
			"type":"VEC3"
		},
		{
			"bufferView":38,
			"componentType":5126,
			"count":703,
			"type":"VEC3"
		},
		{
			"bufferView":39,
			"componentType":5126,
			"count":703,
			"max":[
				0,
				0,
				0.05400344729423523
			],
			"min":[
				0,
				0,
				-0.0333079993724823
			],
			"type":"VEC3"
		},
		{
			"bufferView":40,
			"componentType":5126,
			"count":703,
			"type":"VEC3"
		},
		{
			"bufferView":41,
			"componentType":5126,
			"count":703,
			"max":[
				0,
				0,
				0.025691762566566467
			],
			"min":[
				-9.313225746154785e-10,
				0,
				-0.02602297067642212
			],
			"type":"VEC3"
		},
		{
			"bufferView":42,
			"componentType":5126,
			"count":703,
			"type":"VEC3"
		},
		{
			"componentType":5126,
			"count":703,
			"max":[
				0,
				0,
				0
			],
			"min":[
				0,
				0,
				0
			],
			"sparse":{
				"count":1,
				"indices":{
					"bufferView":43,
					"componentType":5121
				},
				"values":{
					"bufferView":44
				}
			},
			"type":"VEC3"
		},
		{
			"bufferView":45,
			"componentType":5126,
			"count":703,
			"type":"VEC3"
		}
	],
	"bufferViews":[
		{
			"buffer":0,
			"byteLength":193836,
			"byteOffset":0,
			"target":34962
		},
		{
			"buffer":0,
			"byteLength":193836,
			"byteOffset":193836,
			"target":34962
		},
		{
			"buffer":0,
			"byteLength":129224,
			"byteOffset":387672,
			"target":34962
		},
		{
			"buffer":0,
			"byteLength":149592,
			"byteOffset":516896,
			"target":34963
		},
		{
			"buffer":0,
			"byteLength":1,
			"byteOffset":666488
		},
		{
			"buffer":0,
			"byteLength":12,
			"byteOffset":666492
		},
		{
			"buffer":0,
			"byteLength":193836,
			"byteOffset":666504,
			"target":34962
		},
		{
			"buffer":0,
			"byteLength":4528,
			"byteOffset":860340
		},
		{
			"buffer":0,
			"byteLength":27168,
			"byteOffset":864868
		},
		{
			"buffer":0,
			"byteLength":193836,
			"byteOffset":892036,
			"target":34962
		},
		{
			"buffer":0,
			"byteLength":1850,
			"byteOffset":1085872
		},
		{
			"buffer":0,
			"byteLength":11100,
			"byteOffset":1087724
		},
		{
			"buffer":0,
			"byteLength":193836,
			"byteOffset":1098824,
			"target":34962
		},
		{
			"buffer":0,
			"byteLength":5330,
			"byteOffset":1292660
		},
		{
			"buffer":0,
			"byteLength":31980,
			"byteOffset":1297992
		},
		{
			"buffer":0,
			"byteLength":193836,
			"byteOffset":1329972,
			"target":34962
		},
		{
			"buffer":0,
			"byteLength":14112,
			"byteOffset":1523808,
			"target":34962
		},
		{
			"buffer":0,
			"byteLength":14112,
			"byteOffset":1537920,
			"target":34962
		},
		{
			"buffer":0,
			"byteLength":9408,
			"byteOffset":1552032,
			"target":34962
		},
		{
			"buffer":0,
			"byteLength":11520,
			"byteOffset":1561440,
			"target":34963
		},
		{
			"buffer":0,
			"byteLength":1,
			"byteOffset":1572960
		},
		{
			"buffer":0,
			"byteLength":12,
			"byteOffset":1572964
		},
		{
			"buffer":0,
			"byteLength":14112,
			"byteOffset":1572976,
			"target":34962
		},
		{
			"buffer":0,
			"byteLength":1,
			"byteOffset":1587088
		},
		{
			"buffer":0,
			"byteLength":12,
			"byteOffset":1587092
		},
		{
			"buffer":0,
			"byteLength":14112,
			"byteOffset":1587104,
			"target":34962
		},
		{
			"buffer":0,
			"byteLength":1,
			"byteOffset":1601216
		},
		{
			"buffer":0,
			"byteLength":12,
			"byteOffset":1601220
		},
		{
			"buffer":0,
			"byteLength":14112,
			"byteOffset":1601232,
			"target":34962
		},
		{
			"buffer":0,
			"byteLength":1,
			"byteOffset":1615344
		},
		{
			"buffer":0,
			"byteLength":12,
			"byteOffset":1615348
		},
		{
			"buffer":0,
			"byteLength":14112,
			"byteOffset":1615360,
			"target":34962
		},
		{
			"buffer":0,
			"byteLength":8436,
			"byteOffset":1629472,
			"target":34962
		},
		{
			"buffer":0,
			"byteLength":8436,
			"byteOffset":1637908,
			"target":34962
		},
		{
			"buffer":0,
			"byteLength":5624,
			"byteOffset":1646344,
			"target":34962
		},
		{
			"buffer":0,
			"byteLength":6024,
			"byteOffset":1651968,
			"target":34963
		},
		{
			"buffer":0,
			"byteLength":1,
			"byteOffset":1657992
		},
		{
			"buffer":0,
			"byteLength":12,
			"byteOffset":1657996
		},
		{
			"buffer":0,
			"byteLength":8436,
			"byteOffset":1658008,
			"target":34962
		},
		{
			"buffer":0,
			"byteLength":8436,
			"byteOffset":1666444,
			"target":34962
		},
		{
			"buffer":0,
			"byteLength":8436,
			"byteOffset":1674880,
			"target":34962
		},
		{
			"buffer":0,
			"byteLength":8436,
			"byteOffset":1683316,
			"target":34962
		},
		{
			"buffer":0,
			"byteLength":8436,
			"byteOffset":1691752,
			"target":34962
		},
		{
			"buffer":0,
			"byteLength":1,
			"byteOffset":1700188
		},
		{
			"buffer":0,
			"byteLength":12,
			"byteOffset":1700192
		},
		{
			"buffer":0,
			"byteLength":8436,
			"byteOffset":1700204,
			"target":34962
		}
	],
	"samplers":[
		{
			"magFilter":9729,
			"minFilter":9987
		},
		{
			"magFilter":9729,
			"minFilter":9987,
			"wrapS":33071,
			"wrapT":33071
		}
	],
	"buffers":[
		{
			"byteLength":1708640,
			"uri":"Head_v1.bin"
		}
	]
}
