{
	"asset":{
		"generator":"Khronos glTF Blender I/O v5.0.21",
		"version":"2.0"
	},
	"extensionsUsed":[
		"KHR_materials_transmission",
		"KHR_materials_emissive_strength"
	],
	"scene":0,
	"scenes":[
		{
			"extras":{
				"trbassets":{
					"scatter_surface":{}
				},
				"rbdlab":{
					"rbdlab_cf_fast_exact":0,
					"filtered_target_collection":{},
					"chunks_selected":0
				},
				"account_settings":{
					"status_message":"Welcome! Please log in to continue.",
					"login_state":0,
					"block_addon":0,
					"show_update_message":0,
					"update_message":"",
					"update_available":0
				},
				"faceit_live_mocap_settings":[
					{
						"name":"FACECAP",
						"address":"0.0.0.0",
						"port":9001,
						"rotation_units":0,
						"head_location_multiplier":1.0,
						"rotation_units_variable":0,
						"can_animate_head_rotation":1,
						"can_animate_head_location":1,
						"can_animate_eye_rotation":1
					},
					{
						"name":"EPIC",
						"address":"0.0.0.0",
						"port":11111,
						"rotation_units":1,
						"head_location_multiplier":1.0,
						"rotation_units_variable":0,
						"can_animate_head_rotation":1,
						"can_animate_head_location":0,
						"can_animate_eye_rotation":1
					},
					{
						"name":"IFACIALMOCAP",
						"address":"0.0.0.0",
						"port":49983,
						"rotation_units":0,
						"head_location_multiplier":100.0,
						"rotation_units_variable":0,
						"can_animate_head_rotation":1,
						"can_animate_head_location":1,
						"can_animate_eye_rotation":1
					},
					{
						"name":"A2F",
						"address":"0.0.0.0",
						"port":9001,
						"rotation_units":0,
						"head_location_multiplier":1.0,
						"rotation_units_variable":0,
						"can_animate_head_rotation":0,
						"can_animate_head_location":0,
						"can_animate_eye_rotation":0
					}
				],
				"faceit_control_armature":{},
				"faceit_workspace":{
					"active_tab":0,
					"all_tab":"SETUP"
				},
				"faceit_pin_panels":{},
				"faceit_face_objects":[],
				"faceit_face_index":0,
				"faceit_body_armature":{},
				"faceit_picker_options":{
					"picking_group":"",
					"pick_geometry":0
				},
				"faceit_osc_receiver_enabled":0,
				"faceit_eye_pivot_point_L":[
					0.0535641685128212,
					-0.12644155323505402,
					0.055885761976242065
				],
				"faceit_eye_pivot_point_R":[
					-0.0535641685128212,
					-0.12644155323505402,
					0.055885761976242065
				],
				"faceit_eye_manual_pivot_point_L":[
					0.0,
					0.0,
					0.0
				],
				"faceit_eye_manual_pivot_point_R":[
					0.0,
					0.0,
					0.0
				],
				"faceit_armature_missing":0,
				"faceit_armature_type":0,
				"faceit_use_jaw_pivot":0,
				"faceit_expression_list":[],
				"faceit_expression_list_index":13,
				"faceit_shapes_generated":0,
				"faceit_show_warnings":0,
				"faceit_expressions_restorable":0,
				"faceit_weights_restorable":0
			},
			"name":"Scene",
			"nodes":[
				0
			]
		}
	],
	"nodes":[
		{
			"mesh":0,
			"name":"Aro_1",
			"rotation":[
				0.7061376571655273,
				-0.03700710088014603,
				-0.03700711205601692,
				0.7061377763748169
			],
			"scale":[
				1.8937939405441284,
				1.8937939405441284,
				1.8937939405441284
			],
			"translation":[
				0,
				-0.014464291743934155,
				0.1463690996170044
			]
		}
	],
	"animations":[
		{
			"channels":[
				{
					"sampler":0,
					"target":{
						"node":0,
						"path":"rotation"
					}
				}
			],
			"name":"Action",
			"samplers":[
				{
					"input":12,
					"interpolation":"LINEAR",
					"output":13
				}
			]
		}
	],
	"materials":[
		{
			"doubleSided":true,
			"emissiveFactor":[
				1,
				1,
				1
			],
			"emissiveTexture":{
				"index":0
			},
			"name":"Glow.003",
			"pbrMetallicRoughness":{
				"baseColorTexture":{
					"index":1
				},
				"metallicFactor":0
			}
		},
		{
			"doubleSided":true,
			"emissiveFactor":[
				0.09012037833066433,
				0.22674329896955392,
				0.37451950889692753
			],
			"name":"blue",
			"pbrMetallicRoughness":{
				"baseColorFactor":[
					0.800000011920929,
					0.800000011920929,
					0.800000011920929,
					1
				],
				"metallicFactor":0,
				"roughnessFactor":0.5
			}
		},
		{
			"doubleSided":true,
			"emissiveFactor":[
				1,
				1,
				1
			],
			"extensions":{
				"KHR_materials_transmission":{
					"transmissionFactor":1
				},
				"KHR_materials_emissive_strength":{
					"emissiveStrength":2.400000035762787
				}
			},
			"name":"white",
			"pbrMetallicRoughness":{
				"baseColorFactor":[
					0.800000011920929,
					0.800000011920929,
					0.800000011920929,
					1
				],
				"metallicFactor":0,
				"roughnessFactor":0.5
			}
		}
	],
	"meshes":[
		{
			"name":"Circle.001",
			"primitives":[
				{
					"attributes":{
						"POSITION":0,
						"NORMAL":1,
						"TEXCOORD_0":2
					},
					"indices":3,
					"material":0
				},
				{
					"attributes":{
						"POSITION":4,
						"NORMAL":5,
						"TEXCOORD_0":6
					},
					"indices":7,
					"material":1
				},
				{
					"attributes":{
						"POSITION":8,
						"NORMAL":9,
						"TEXCOORD_0":10
					},
					"indices":11,
					"material":2
				}
			]
		}
	],
	"textures":[
		{
			"sampler":0,
			"source":0
		},
		{
			"sampler":0,
			"source":0
		}
	],
	"images":[
		{
			"mimeType":"image/png",
			"name":"glow",
			"uri":"Textures/glow.png"
		}
	],
	"accessors":[
		{
			"bufferView":0,
			"componentType":5126,
			"count":576,
			"max":[
				0.8128397464752197,
				1.770668272005609e-15,
				0.812839686870575
			],
			"min":[
				-0.8128397464752197,
				-1.770668272005609e-15,
				-0.8128397464752197
			],
			"type":"VEC3"
		},
		{
			"bufferView":1,
			"componentType":5126,
			"count":576,
			"type":"VEC3"
		},
		{
			"bufferView":2,
			"componentType":5126,
			"count":576,
			"type":"VEC2"
		},
		{
			"bufferView":3,
			"componentType":5123,
			"count":1824,
			"type":"SCALAR"
		},
		{
			"bufferView":4,
			"componentType":5126,
			"count":384,
			"max":[
				0.652370274066925,
				1.0561496596609157e-24,
				0.652370274066925
			],
			"min":[
				-0.652370274066925,
				1.0561496596609157e-24,
				-0.652370274066925
			],
			"type":"VEC3"
		},
		{
			"bufferView":5,
			"componentType":5126,
			"count":384,
			"type":"VEC3"
		},
		{
			"bufferView":6,
			"componentType":5126,
			"count":384,
			"type":"VEC2"
		},
		{
			"bufferView":7,
			"componentType":5123,
			"count":1536,
			"type":"SCALAR"
		},
		{
			"bufferView":8,
			"componentType":5126,
			"count":64,
			"max":[
				0.8073270320892334,
				1.0561496596609157e-24,
				0.8073270320892334
			],
			"min":[
				-0.8073270320892334,
				1.0561496596609157e-24,
				-0.8073270320892334
			],
			"type":"VEC3"
		},
		{
			"bufferView":9,
			"componentType":5126,
			"count":64,
			"type":"VEC3"
		},
		{
			"bufferView":10,
			"componentType":5126,
			"count":64,
			"type":"VEC2"
		},
		{
			"bufferView":11,
			"componentType":5123,
			"count":96,
			"type":"SCALAR"
		},
		{
			"bufferView":12,
			"componentType":5126,
			"count":120,
			"max":[
				5
			],
			"min":[
				0.041666666666666664
			],
			"type":"SCALAR"
		},
		{
			"bufferView":13,
			"componentType":5126,
			"count":120,
			"type":"VEC4"
		}
	],
	"bufferViews":[
		{
			"buffer":0,
			"byteLength":6912,
			"byteOffset":0,
			"target":34962
		},
		{
			"buffer":0,
			"byteLength":6912,
			"byteOffset":6912,
			"target":34962
		},
		{
			"buffer":0,
			"byteLength":4608,
			"byteOffset":13824,
			"target":34962
		},
		{
			"buffer":0,
			"byteLength":3648,
			"byteOffset":18432,
			"target":34963
		},
		{
			"buffer":0,
			"byteLength":4608,
			"byteOffset":22080,
			"target":34962
		},
		{
			"buffer":0,
			"byteLength":4608,
			"byteOffset":26688,
			"target":34962
		},
		{
			"buffer":0,
			"byteLength":3072,
			"byteOffset":31296,
			"target":34962
		},
		{
			"buffer":0,
			"byteLength":3072,
			"byteOffset":34368,
			"target":34963
		},
		{
			"buffer":0,
			"byteLength":768,
			"byteOffset":37440,
			"target":34962
		},
		{
			"buffer":0,
			"byteLength":768,
			"byteOffset":38208,
			"target":34962
		},
		{
			"buffer":0,
			"byteLength":512,
			"byteOffset":38976,
			"target":34962
		},
		{
			"buffer":0,
			"byteLength":192,
			"byteOffset":39488,
			"target":34963
		},
		{
			"buffer":0,
			"byteLength":480,
			"byteOffset":39680
		},
		{
			"buffer":0,
			"byteLength":1920,
			"byteOffset":40160
		}
	],
	"samplers":[
		{
			"magFilter":9729,
			"minFilter":9987
		}
	],
	"buffers":[
		{
			"byteLength":42080,
			"uri":"Aro_1.bin"
		}
	]
}
