{
	"asset":{
		"generator":"Khronos glTF Blender I/O v5.0.21",
		"version":"2.0"
	},
	"extensionsUsed":[
		"KHR_materials_emissive_strength"
	],
	"scene":0,
	"scenes":[
		{
			"extras":{
				"trbassets":{
					"scatter_surface":{}
				},
				"rbdlab":{
					"rbdlab_cf_fast_exact":0,
					"filtered_target_collection":{},
					"chunks_selected":0
				},
				"account_settings":{
					"status_message":"Welcome! Please log in to continue.",
					"login_state":0,
					"block_addon":0,
					"show_update_message":0,
					"update_message":"",
					"update_available":0
				},
				"faceit_live_mocap_settings":[
					{
						"name":"FACECAP",
						"address":"0.0.0.0",
						"port":9001,
						"rotation_units":0,
						"head_location_multiplier":1.0,
						"rotation_units_variable":0,
						"can_animate_head_rotation":1,
						"can_animate_head_location":1,
						"can_animate_eye_rotation":1
					},
					{
						"name":"EPIC",
						"address":"0.0.0.0",
						"port":11111,
						"rotation_units":1,
						"head_location_multiplier":1.0,
						"rotation_units_variable":0,
						"can_animate_head_rotation":1,
						"can_animate_head_location":0,
						"can_animate_eye_rotation":1
					},
					{
						"name":"IFACIALMOCAP",
						"address":"0.0.0.0",
						"port":49983,
						"rotation_units":0,
						"head_location_multiplier":100.0,
						"rotation_units_variable":0,
						"can_animate_head_rotation":1,
						"can_animate_head_location":1,
						"can_animate_eye_rotation":1
					},
					{
						"name":"A2F",
						"address":"0.0.0.0",
						"port":9001,
						"rotation_units":0,
						"head_location_multiplier":1.0,
						"rotation_units_variable":0,
						"can_animate_head_rotation":0,
						"can_animate_head_location":0,
						"can_animate_eye_rotation":0
					}
				],
				"faceit_control_armature":{},
				"faceit_workspace":{
					"active_tab":0,
					"all_tab":"SETUP"
				},
				"faceit_pin_panels":{},
				"faceit_face_objects":[],
				"faceit_face_index":0,
				"faceit_body_armature":{},
				"faceit_picker_options":{
					"picking_group":"",
					"pick_geometry":0
				},
				"faceit_osc_receiver_enabled":0,
				"faceit_eye_pivot_point_L":[
					0.0535641685128212,
					-0.12644155323505402,
					0.055885761976242065
				],
				"faceit_eye_pivot_point_R":[
					-0.0535641685128212,
					-0.12644155323505402,
					0.055885761976242065
				],
				"faceit_eye_manual_pivot_point_L":[
					0.0,
					0.0,
					0.0
				],
				"faceit_eye_manual_pivot_point_R":[
					0.0,
					0.0,
					0.0
				],
				"faceit_armature_missing":0,
				"faceit_armature_type":0,
				"faceit_use_jaw_pivot":0,
				"faceit_expression_list":[],
				"faceit_expression_list_index":13,
				"faceit_shapes_generated":0,
				"faceit_show_warnings":0,
				"faceit_expressions_restorable":0,
				"faceit_weights_restorable":0
			},
			"name":"Scene",
			"nodes":[
				0
			]
		}
	],
	"nodes":[
		{
			"mesh":0,
			"name":"Aro_3",
			"rotation":[
				0.7071068286895752,
				0,
				0,
				0.7071068286895752
			],
			"scale":[
				1.6320770978927612,
				1.6320769786834717,
				1.6320770978927612
			],
			"translation":[
				0,
				-0.014464306645095348,
				-0.018153386190533638
			]
		}
	],
	"animations":[
		{
			"channels":[
				{
					"sampler":0,
					"target":{
						"node":0,
						"path":"rotation"
					}
				}
			],
			"name":"rot",
			"samplers":[
				{
					"input":4,
					"interpolation":"LINEAR",
					"output":5
				}
			]
		}
	],
	"materials":[
		{
			"doubleSided":true,
			"emissiveFactor":[
				1,
				1,
				1
			],
			"emissiveTexture":{
				"index":0
			},
			"extensions":{
				"KHR_materials_emissive_strength":{
					"emissiveStrength":2
				}
			},
			"name":"Glow.002",
			"pbrMetallicRoughness":{
				"baseColorTexture":{
					"index":1
				},
				"metallicFactor":0
			}
		}
	],
	"meshes":[
		{
			"name":"Circle.005",
			"primitives":[
				{
					"attributes":{
						"POSITION":0,
						"NORMAL":1,
						"TEXCOORD_0":2
					},
					"indices":3,
					"material":0
				}
			]
		}
	],
	"textures":[
		{
			"sampler":0,
			"source":0
		},
		{
			"sampler":0,
			"source":0
		}
	],
	"images":[
		{
			"mimeType":"image/png",
			"name":"Glow_2",
			"uri":"Textures/Glow_2.png"
		}
	],
	"accessors":[
		{
			"bufferView":0,
			"componentType":5126,
			"count":1668,
			"max":[
				1.1997872591018677,
				0,
				1.1997872591018677
			],
			"min":[
				-1.1997872591018677,
				-4.908069968223572e-07,
				-1.1997872591018677
			],
			"type":"VEC3"
		},
		{
			"bufferView":1,
			"componentType":5126,
			"count":1668,
			"type":"VEC3"
		},
		{
			"bufferView":2,
			"componentType":5126,
			"count":1668,
			"type":"VEC2"
		},
		{
			"bufferView":3,
			"componentType":5123,
			"count":4344,
			"type":"SCALAR"
		},
		{
			"bufferView":4,
			"componentType":5126,
			"count":120,
			"max":[
				5
			],
			"min":[
				0.041666666666666664
			],
			"type":"SCALAR"
		},
		{
			"bufferView":5,
			"componentType":5126,
			"count":120,
			"type":"VEC4"
		}
	],
	"bufferViews":[
		{
			"buffer":0,
			"byteLength":20016,
			"byteOffset":0,
			"target":34962
		},
		{
			"buffer":0,
			"byteLength":20016,
			"byteOffset":20016,
			"target":34962
		},
		{
			"buffer":0,
			"byteLength":13344,
			"byteOffset":40032,
			"target":34962
		},
		{
			"buffer":0,
			"byteLength":8688,
			"byteOffset":53376,
			"target":34963
		},
		{
			"buffer":0,
			"byteLength":480,
			"byteOffset":62064
		},
		{
			"buffer":0,
			"byteLength":1920,
			"byteOffset":62544
		}
	],
	"samplers":[
		{
			"magFilter":9729,
			"minFilter":9987
		}
	],
	"buffers":[
		{
			"byteLength":64464,
			"uri":"Aro_3.bin"
		}
	]
}
