{
	"asset":{
		"generator":"Khronos glTF Blender I/O v5.0.21",
		"version":"2.0"
	},
	"scene":0,
	"scenes":[
		{
			"extras":{
				"trbassets":{
					"scatter_surface":{}
				},
				"rbdlab":{
					"rbdlab_cf_fast_exact":0,
					"filtered_target_collection":{},
					"chunks_selected":0
				},
				"account_settings":{
					"status_message":"Welcome! Please log in to continue.",
					"login_state":0,
					"block_addon":0,
					"show_update_message":0,
					"update_message":"",
					"update_available":0
				},
				"faceit_live_mocap_settings":[
					{
						"name":"FACECAP",
						"address":"0.0.0.0",
						"port":9001,
						"rotation_units":0,
						"head_location_multiplier":1.0,
						"rotation_units_variable":0,
						"can_animate_head_rotation":1,
						"can_animate_head_location":1,
						"can_animate_eye_rotation":1
					},
					{
						"name":"EPIC",
						"address":"0.0.0.0",
						"port":11111,
						"rotation_units":1,
						"head_location_multiplier":1.0,
						"rotation_units_variable":0,
						"can_animate_head_rotation":1,
						"can_animate_head_location":0,
						"can_animate_eye_rotation":1
					},
					{
						"name":"IFACIALMOCAP",
						"address":"0.0.0.0",
						"port":49983,
						"rotation_units":0,
						"head_location_multiplier":100.0,
						"rotation_units_variable":0,
						"can_animate_head_rotation":1,
						"can_animate_head_location":1,
						"can_animate_eye_rotation":1
					},
					{
						"name":"A2F",
						"address":"0.0.0.0",
						"port":9001,
						"rotation_units":0,
						"head_location_multiplier":1.0,
						"rotation_units_variable":0,
						"can_animate_head_rotation":0,
						"can_animate_head_location":0,
						"can_animate_eye_rotation":0
					}
				],
				"faceit_control_armature":{},
				"faceit_workspace":{
					"active_tab":0,
					"all_tab":"SETUP"
				},
				"faceit_pin_panels":{},
				"faceit_face_objects":[],
				"faceit_face_index":0,
				"faceit_body_armature":{},
				"faceit_picker_options":{
					"picking_group":"",
					"pick_geometry":0
				},
				"faceit_osc_receiver_enabled":0,
				"faceit_eye_pivot_point_L":[
					0.0535641685128212,
					-0.12644155323505402,
					0.055885761976242065
				],
				"faceit_eye_pivot_point_R":[
					-0.0535641685128212,
					-0.12644155323505402,
					0.055885761976242065
				],
				"faceit_eye_manual_pivot_point_L":[
					0.0,
					0.0,
					0.0
				],
				"faceit_eye_manual_pivot_point_R":[
					0.0,
					0.0,
					0.0
				],
				"faceit_armature_missing":0,
				"faceit_armature_type":0,
				"faceit_use_jaw_pivot":0,
				"faceit_expression_list":[],
				"faceit_expression_list_index":13,
				"faceit_shapes_generated":0,
				"faceit_show_warnings":0,
				"faceit_expressions_restorable":0,
				"faceit_weights_restorable":0
			},
			"name":"Scene",
			"nodes":[
				0
			]
		}
	],
	"nodes":[
		{
			"mesh":0,
			"name":"Aro_2",
			"scale":[
				1.893794059753418,
				1.893794059753418,
				1.8937939405441284
			],
			"translation":[
				0,
				0,
				0.06673195213079453
			]
		}
	],
	"animations":[
		{
			"channels":[
				{
					"sampler":0,
					"target":{
						"node":0,
						"path":"rotation"
					}
				}
			],
			"name":"Action.003",
			"samplers":[
				{
					"input":4,
					"interpolation":"LINEAR",
					"output":5
				}
			]
		}
	],
	"materials":[
		{
			"doubleSided":true,
			"emissiveFactor":[
				0.545465350151062,
				0.545465350151062,
				0.545465350151062
			],
			"name":"Glow.001",
			"pbrMetallicRoughness":{
				"baseColorFactor":[
					0,
					0.04174264892935753,
					0.3313977122306824,
					1
				],
				"metallicFactor":0,
				"roughnessFactor":0.5
			}
		}
	],
	"meshes":[
		{
			"name":"Circle.011",
			"primitives":[
				{
					"attributes":{
						"POSITION":0,
						"NORMAL":1,
						"TEXCOORD_0":2
					},
					"indices":3,
					"material":0
				}
			]
		}
	],
	"accessors":[
		{
			"bufferView":0,
			"componentType":5126,
			"count":64,
			"max":[
				1.0167720317840576,
				1.0167728662490845,
				2.057793295762167e-07
			],
			"min":[
				-1.0167732238769531,
				-1.0167721509933472,
				-2.3007963534382725e-07
			],
			"type":"VEC3"
		},
		{
			"bufferView":1,
			"componentType":5126,
			"count":64,
			"type":"VEC3"
		},
		{
			"bufferView":2,
			"componentType":5126,
			"count":64,
			"type":"VEC2"
		},
		{
			"bufferView":3,
			"componentType":5123,
			"count":96,
			"type":"SCALAR"
		},
		{
			"bufferView":4,
			"componentType":5126,
			"count":120,
			"max":[
				5
			],
			"min":[
				0.041666666666666664
			],
			"type":"SCALAR"
		},
		{
			"bufferView":5,
			"componentType":5126,
			"count":120,
			"type":"VEC4"
		}
	],
	"bufferViews":[
		{
			"buffer":0,
			"byteLength":768,
			"byteOffset":0,
			"target":34962
		},
		{
			"buffer":0,
			"byteLength":768,
			"byteOffset":768,
			"target":34962
		},
		{
			"buffer":0,
			"byteLength":512,
			"byteOffset":1536,
			"target":34962
		},
		{
			"buffer":0,
			"byteLength":192,
			"byteOffset":2048,
			"target":34963
		},
		{
			"buffer":0,
			"byteLength":480,
			"byteOffset":2240
		},
		{
			"buffer":0,
			"byteLength":1920,
			"byteOffset":2720
		}
	],
	"buffers":[
		{
			"byteLength":4640,
			"uri":"Aro_2.bin"
		}
	]
}
